/* XPM */
static char *player[] = {
"32 32 2 1",
"0 c None",
"1 c #00FF00",
"00000000000000000000000000000000",
"00000000000000000000000000000000",
"00000011111100000000000000000000",
"00000011111100000000000000000000",
"00011111111111110000000000000000",
"00011111111111110000000000000000",
"00111111111111111100000000000000",
"00111111111111111100000000000000",
"00111111111111111100000000000000",
"00111111111111111100000000000000",
"00110000110000110001000000000000",
"00110000110000110001000000000000",
"00010000110000110000000000000000",
"00010000110000110000000000000000",
"00011111111111111000000000000000",
"00011111111111111000000000000000",
"00000011111000000000000000000000",
"00000011111000000000000000000000",
"00000000110000000000000000000000",
"00000000110000000000000000000000",
"00000011111000000000000000000000",
"00000011111000000000000000000000",
"00001111111100000000000000000000",
"00001111111100000000000000000000",
"00011111111111000000000000000000",
"00011111111111000000000000000000",
"00110000000011000000000000000000",
"00110000000011000000000000000000",
"00000000000000000000000000000000",
"00000000000000000000000000000000",
"00000000000000000000000000000000",
"00000000000000000000000000000000"
};