/* XPM */
static char * collect_xpm[] = {
"50 50 583 2",
"  	c None",
". 	c #802B11",
"+ 	c #7E2910",
"@ 	c #802A10",
"# 	c #A35118",
"$ 	c #F68B29",
"% 	c #FB9029",
"& 	c #EB7A22",
"* 	c #DC7522",
"= 	c #C2651D",
"- 	c #944516",
"; 	c #802C11",
"> 	c #873411",
", 	c #F17F25",
"' 	c #FD8125",
") 	c #E67D23",
"! 	c #E57722",
"~ 	c #FE8225",
"{ 	c #FE8627",
"] 	c #E37922",
"^ 	c #A8581B",
"/ 	c #812C11",
"( 	c #933B12",
"_ 	c #F27B23",
": 	c #FD8326",
"< 	c #BD641D",
"[ 	c #F58225",
"} 	c #FC8727",
"| 	c #D47322",
"1 	c #FE8628",
"2 	c #DA7624",
"3 	c #873211",
"4 	c #954615",
"5 	c #E17421",
"6 	c #CF7321",
"7 	c #F68628",
"8 	c #BC631D",
"9 	c #FE8728",
"0 	c #CD7823",
"a 	c #DD7723",
"b 	c #EA7924",
"c 	c #D77523",
"d 	c #914917",
"e 	c #8C3A13",
"f 	c #F28426",
"g 	c #FA8627",
"h 	c #E07823",
"i 	c #C5671E",
"j 	c #904515",
"k 	c #A35D1F",
"l 	c #AD5D1F",
"m 	c #C17327",
"n 	c #C17025",
"o 	c #BE7024",
"p 	c #A7531B",
"q 	c #A15A1F",
"r 	c #7F2A12",
"s 	c #822D13",
"t 	c #8B3512",
"u 	c #A85A1B",
"v 	c #CA6B21",
"w 	c #E6842C",
"x 	c #FD9431",
"y 	c #FF9031",
"z 	c #FF9233",
"A 	c #FF9132",
"B 	c #FE9031",
"C 	c #FE8F30",
"D 	c #FE8D2F",
"E 	c #FF8F2F",
"F 	c #FB902F",
"G 	c #E3812B",
"H 	c #C16C23",
"I 	c #914618",
"J 	c #C8621A",
"K 	c #D8671B",
"L 	c #A84D15",
"M 	c #7B260F",
"N 	c #8C3D15",
"O 	c #C46A21",
"P 	c #ED8329",
"Q 	c #FE882B",
"R 	c #FE892B",
"S 	c #FE8F31",
"T 	c #F38B2F",
"U 	c #DF852C",
"V 	c #FF8F31",
"W 	c #FF8D2F",
"X 	c #FE8C2E",
"Y 	c #FE8C2D",
"Z 	c #D37525",
"` 	c #F58C2D",
" .	c #FF8E2F",
"..	c #FF8C2D",
"+.	c #FC8E2E",
"@.	c #D87828",
"#.	c #984919",
"$.	c #D1651A",
"%.	c #F1721E",
"&.	c #F0721E",
"*.	c #D5671B",
"=.	c #903C12",
"-.	c #7E2B10",
";.	c #C36F25",
">.	c #F88C2F",
",.	c #FE8B2D",
"'.	c #FE8B2E",
").	c #B86D24",
"!.	c #FB9434",
"~.	c #FF9032",
"{.	c #FE8A2C",
"].	c #C86D22",
"^.	c #DB7826",
"/.	c #FE8A2B",
"(.	c #FF8D2E",
"_.	c #FF8A2C",
":.	c #FF872A",
"<.	c #FF8C2E",
"[.	c #FA8D2E",
"}.	c #C87325",
"|.	c #B15215",
"1.	c #EF701D",
"2.	c #EF711D",
"3.	c #E66D1D",
"4.	c #9D4814",
"5.	c #994819",
"6.	c #EA882F",
"7.	c #FE9133",
"8.	c #E7802B",
"9.	c #D07928",
"0.	c #FF9133",
"a.	c #FE9132",
"b.	c #C06D24",
"c.	c #E7842C",
"d.	c #FE8E2F",
"e.	c #FF8B2D",
"f.	c #EA8429",
"g.	c #C37024",
"h.	c #FF8D2D",
"i.	c #F9882B",
"j.	c #EC8028",
"k.	c #F4862A",
"l.	c #FF8A2B",
"m.	c #E68029",
"n.	c #904417",
"o.	c #85310E",
"p.	c #EC711C",
"q.	c #EE6E1C",
"r.	c #EB711D",
"s.	c #9F4914",
"t.	c #AE591C",
"u.	c #FA8D2F",
"v.	c #FF8F30",
"w.	c #FF8E30",
"x.	c #B56822",
"y.	c #FE902F",
"z.	c #FF9334",
"A.	c #D37E2B",
"B.	c #D17224",
"C.	c #B26320",
"D.	c #FA8E2E",
"E.	c #DA7525",
"F.	c #A47667",
"G.	c #BEA99E",
"H.	c #B49A90",
"I.	c #C26E2D",
"J.	c #FA882B",
"K.	c #F38D2D",
"L.	c #9B511B",
"M.	c #C45C17",
"N.	c #DE6719",
"O.	c #B75314",
"P.	c #E36719",
"Q.	c #E56A1A",
"R.	c #923F11",
"S.	c #7C280F",
"T.	c #BF661F",
"U.	c #FE8C2C",
"V.	c #FC8B2C",
"W.	c #CF7626",
"X.	c #E2842E",
"Y.	c #C16B23",
"Z.	c #A95E1E",
"`.	c #FE8528",
" +	c #FE872A",
".+	c #F0892C",
"++	c #C97225",
"@+	c #EE872B",
"#+	c #AD8C7F",
"$+	c #F9F5E8",
"%+	c #FDF9EB",
"&+	c #E7DFD3",
"*+	c #BB6D40",
"=+	c #FE8D2D",
"-+	c #F18C2D",
";+	c #883613",
">+	c #85300E",
",+	c #E56A1B",
"'+	c #EC6A1A",
")+	c #E46618",
"!+	c #B05113",
"~+	c #E56C1A",
"{+	c #C55B16",
"]+	c #B55D1B",
"^+	c #FE882A",
"/+	c #FF882A",
"(+	c #DB7C27",
"_+	c #E6832D",
":+	c #FE9233",
"<+	c #D27B29",
"[+	c #D17628",
"}+	c #FE9234",
"|+	c #FF9234",
"1+	c #C77224",
"2+	c #FE8729",
"3+	c #FF8B2C",
"4+	c #CD6F23",
"5+	c #EA862B",
"6+	c #FF9030",
"7+	c #C86D23",
"8+	c #E6DDD0",
"9+	c #E2D8CC",
"0+	c #8B4739",
"a+	c #CAB8AD",
"b+	c #C3AEA3",
"c+	c #F0872B",
"d+	c #E6832A",
"e+	c #7E2A11",
"f+	c #A84712",
"g+	c #EA6618",
"h+	c #E86317",
"i+	c #E76818",
"j+	c #AA4E13",
"k+	c #A04D16",
"l+	c #FA8427",
"m+	c #EB832A",
"n+	c #C26F25",
"o+	c #F98E32",
"p+	c #B16622",
"q+	c #FF9235",
"r+	c #FE9235",
"s+	c #FE8E30",
"t+	c #B9651F",
"u+	c #EE7F26",
"v+	c #FE8428",
"w+	c #FF892B",
"x+	c #B1601F",
"y+	c #FF902E",
"z+	c #B7611F",
"A+	c #FDF9EC",
"B+	c #C2ACA1",
"C+	c #872F14",
"D+	c #A88176",
"E+	c #D9C8BB",
"F+	c #D77225",
"G+	c #D37A29",
"H+	c #7D2811",
"I+	c #78230C",
"J+	c #C55815",
"K+	c #E05F16",
"L+	c #C05013",
"M+	c #B74E13",
"N+	c #D77222",
"O+	c #E77F29",
"P+	c #BE7227",
"Q+	c #F18E31",
"R+	c #CD7428",
"S+	c #F69032",
"T+	c #FE8C30",
"U+	c #FD922F",
"V+	c #BE5E1A",
"W+	c #FD8024",
"X+	c #FE8125",
"Y+	c #BA6D23",
"Z+	c #C46F23",
"`+	c #E7DED2",
" @	c #F3EDDF",
".@	c #BFA89E",
"+@	c #E6DDD1",
"@@	c #C4B0A6",
"#@	c #E8832A",
"$@	c #CD7425",
"%@	c #7F2A0D",
"&@	c #D75D15",
"*@	c #D85B14",
"=@	c #943A0F",
"-@	c #F48628",
";@	c #FE8427",
">@	c #AE5C1D",
",@	c #FE9231",
"'@	c #FE9032",
")@	c #FE8A2D",
"!@	c #DE7521",
"~@	c #FE7F24",
"{@	c #FE8B2C",
"]@	c #9D4816",
"^@	c #FF892A",
"/@	c #AD877A",
"(@	c #F4EFE1",
"_@	c #FEFAEB",
":@	c #B5683D",
"<@	c #E48127",
"[@	c #812E14",
"}@	c #8B310D",
"|@	c #DF5D15",
"1@	c #E36016",
"2@	c #9E4111",
"3@	c #F38426",
"4@	c #FF8528",
"5@	c #DA7826",
"6@	c #D57E28",
"7@	c #FA8E2F",
"8@	c #DB7D29",
"9@	c #C06522",
"0@	c #BE611F",
"a@	c #D57122",
"b@	c #E97D24",
"c@	c #FD8025",
"d@	c #9E4816",
"e@	c #FE8426",
"f@	c #E57C26",
"g@	c #A3582E",
"h@	c #A47E74",
"i@	c #A57764",
"j@	c #C66E25",
"k@	c #FA8B2E",
"l@	c #FE8629",
"m@	c #E47E26",
"n@	c #7F2B12",
"o@	c #7F2A0C",
"p@	c #DE6116",
"q@	c #D65D15",
"r@	c #B64D12",
"s@	c #B14A12",
"t@	c #D86F1E",
"u@	c #FF8729",
"v@	c #F78328",
"w@	c #A74E17",
"x@	c #D6691D",
"y@	c #E1691B",
"z@	c #E0681B",
"A@	c #D8661A",
"B@	c #C25C18",
"C@	c #A65016",
"D@	c #E17320",
"E@	c #B5641D",
"F@	c #FE8527",
"G@	c #FE8226",
"H@	c #FE7E22",
"I@	c #FE8326",
"J@	c #FE8D2E",
"K@	c #EF872C",
"L@	c #D17123",
"M@	c #FA8629",
"N@	c #F58528",
"O@	c #C5621D",
"P@	c #894016",
"Q@	c #C85815",
"R@	c #E86417",
"S@	c #DD5E15",
"T@	c #A74310",
"U@	c #9F4B15",
"V@	c #FA7B22",
"W@	c #FE8124",
"X@	c #FE8327",
"Y@	c #DD7120",
"Z@	c #C55F1A",
"`@	c #F67620",
" #	c #F06D1B",
".#	c #DD6418",
"+#	c #B64F14",
"@#	c #C55C17",
"##	c #D06419",
"$#	c #ED711E",
"%#	c #FD7E23",
"&#	c #AE5718",
"*#	c #FE8123",
"=#	c #FE7F23",
"-#	c #FF8527",
";#	c #DA7724",
">#	c #A8601D",
",#	c #A14716",
"'#	c #A85A1A",
")#	c #AB5719",
"!#	c #7F2810",
"~#	c #9A3E10",
"{#	c #E96518",
"]#	c #E76216",
"^#	c #CE5814",
"/#	c #B75012",
"(#	c #E46116",
"_#	c #B65014",
":#	c #BA601B",
"<#	c #FD7F23",
"[#	c #FE8024",
"}#	c #FB8225",
"|#	c #BD5A19",
"1#	c #B05B18",
"2#	c #D46016",
"3#	c #EC6818",
"4#	c #DD6116",
"5#	c #DB5E15",
"6#	c #BF5213",
"7#	c #F6721D",
"8#	c #FC7920",
"9#	c #CA611A",
"0#	c #E97620",
"a#	c #FE8224",
"b#	c #FE8023",
"c#	c #FA8326",
"d#	c #E67D25",
"e#	c #FD8225",
"f#	c #CF6A1D",
"g#	c #76220B",
"h#	c #D35F16",
"i#	c #E96517",
"j#	c #DE6317",
"k#	c #D35C15",
"l#	c #E76316",
"m#	c #832F0E",
"n#	c #BE621B",
"o#	c #FB7B21",
"p#	c #A54E14",
"q#	c #E36517",
"r#	c #EA6417",
"s#	c #D46217",
"t#	c #AF4E12",
"u#	c #D05D16",
"v#	c #D56318",
"w#	c #F8731D",
"x#	c #EB731E",
"y#	c #C6601A",
"z#	c #FE7D22",
"A#	c #FF8225",
"B#	c #F98629",
"C#	c #9C4917",
"D#	c #E3832C",
"E#	c #E67722",
"F#	c #883C14",
"G#	c #8C380E",
"H#	c #E96618",
"I#	c #EB6719",
"J#	c #EC691A",
"K#	c #DB6118",
"L#	c #8D370F",
"M#	c #A95017",
"N#	c #F57E24",
"O#	c #FD7F24",
"P#	c #FD7C22",
"Q#	c #EC721E",
"R#	c #B34D13",
"S#	c #EC6719",
"T#	c #EA6A1A",
"U#	c #AF4A12",
"V#	c #CB5715",
"W#	c #F6701B",
"X#	c #FB771F",
"Y#	c #AB5316",
"Z#	c #F97E23",
"`#	c #F28127",
" $	c #B25B1D",
".$	c #AB551C",
"+$	c #D27423",
"@$	c #DF7121",
"#$	c #E57A23",
"$$	c #843011",
"%$	c #B14C12",
"&$	c #EC6919",
"*$	c #EC6B1A",
"=$	c #C75B17",
"-$	c #802F0E",
";$	c #E17722",
">$	c #FD7D22",
",$	c #A84E14",
"'$	c #C35615",
")$	c #CB5916",
"!$	c #B14B12",
"~$	c #A74E13",
"{$	c #DF681A",
"]$	c #F26C1A",
"^$	c #F7711C",
"/$	c #FB7820",
"($	c #E6701D",
"_$	c #BE601A",
":$	c #FE8829",
"<$	c #F48327",
"[$	c #EC8528",
"}$	c #F58025",
"|$	c #FD8426",
"1$	c #C9671D",
"2$	c #7F2A11",
"3$	c #B44E13",
"4$	c #E26819",
"5$	c #C75B16",
"6$	c #953E10",
"7$	c #79250D",
"8$	c #7D260E",
"9$	c #B15719",
"0$	c #EC7921",
"a$	c #FC7A21",
"b$	c #F97920",
"c$	c #E06C1C",
"d$	c #D96619",
"e$	c #E76C1B",
"f$	c #F4701C",
"g$	c #F36E1B",
"h$	c #F46F1C",
"i$	c #F8721C",
"j$	c #FC781F",
"k$	c #C55E18",
"l$	c #D3691C",
"m$	c #E58025",
"n$	c #A04917",
"o$	c #7D2910",
"p$	c #79270F",
"q$	c #7B270E",
"r$	c #7B260E",
"s$	c #B15820",
"t$	c #DB6B1D",
"u$	c #F1701C",
"v$	c #F06B1A",
"w$	c #F16D1B",
"x$	c #F26C1B",
"y$	c #F9741E",
"z$	c #FB761F",
"A$	c #FD7B21",
"B$	c #DF701E",
"C$	c #F9872A",
"D$	c #D97624",
"E$	c #A4561B",
"F$	c #802A11",
"G$	c #7B250D",
"H$	c #863A10",
"I$	c #A84A12",
"J$	c #C15715",
"K$	c #D66318",
"L$	c #DF6318",
"M$	c #F47A1F",
"N$	c #F9761E",
"O$	c #FD7A20",
"P$	c #FD8727",
"Q$	c #EE7A23",
"R$	c #E17520",
"S$	c #CD6A1F",
"T$	c #AF5E1C",
"U$	c #843313",
"V$	c #812C12",
"W$	c #79240C",
"X$	c #DB6318",
"Y$	c #E36718",
"Z$	c #BE5715",
"`$	c #A24311",
" %	c #AF5014",
".%	c #8C330E",
"+%	c #993B10",
"@%	c #913D10",
"#%	c #78250E",
"$%	c #7E2911",
"%%	c #B64E13",
"&%	c #EA6517",
"*%	c #D56016",
"=%	c #C35514",
"-%	c #E96417",
";%	c #C45614",
">%	c #E76417",
",%	c #E16417",
"'%	c #983B10",
")%	c #7E290D",
"!%	c #E56819",
"~%	c #E56718",
"{%	c #EA6518",
"]%	c #E46317",
"^%	c #BF5214",
"/%	c #802B0D",
"(%	c #8C340F",
"_%	c #E66B1A",
":%	c #EE6F1B",
"<%	c #DB6117",
"[%	c #CB5915",
"}%	c #A84511",
"|%	c #83300D",
"1%	c #7A250D",
"2%	c #79240D",
"                                                                                                    ",
"                                                                                                    ",
"                                                                                                    ",
"                                                                                                    ",
"                                                                                                    ",
"                                                                                                    ",
"                                                                                                    ",
"                                                                                                    ",
"                                                                                                    ",
"                                        . + @                                                       ",
"                                      # $ % & * = - ;                                               ",
"                                      > , ' ) ! ~ { ] ^ /                                           ",
"                                        ( _ : < [ } | 1 2 3                                         ",
"                                      4 5 6 1 7 8 9 0 a b c d                                       ",
"                                      e f g h i j k l m n o p q r s                                 ",
"                                        t u v w x y z A B C D E F G H I                             ",
"        J K L M                     N O P Q R S T U V W X W Y Z `  ...+.@.#.                        ",
"        $.%.&.*.=.              -.;.>.D ,.'.'.C ).!.~.X {...].^./.(._.:.<.[.}.;                     ",
"        |.1.1.2.3.4.          5.6.7.y 8.9.S 0.a.b.c.d.(.e.f.g.h.(.,.i.j.k.l.(.m.n.                  ",
"        o.p.1.q.1.r.s.      t.u.v.w.y x.y.d.z.z.A.B.R _./.C.D.....E.F.G.H.I.J.{.K.L.                ",
"          M.q.N.O.P.Q.R.S.T.U.V.W.a.V X.Y.S z A Z.1 `. +.+++v.(.@+#+$+%+%+&+*+l.=+-+;+              ",
"          >+,+'+)+!+~+{+]+^+/+(+_+:+0.<+[+}+|+V 1+a 2+3+4+5+(.6+7+8+%+9+0+a+b+c+3+(.d+e+            ",
"            f+g+h+i+j+k+l+Q <.m+n+o+A p+q+|+r+s+t+u+v+w+x+y+l...z+A+%+B+C+D+E+F+{. .v.G+H+          ",
"            I+J+K+L+M+N+ + +<.O+P+Q+A R+S+7.T+U+V+W+X+/+Y+w+w+l.Z+`+%+ @.@+@@@#@{.v. .Y $@e+        ",
"              %@&@*@=@-@1 ;@Q >@,@w.~.A '@'@'.)@!@~@;@{@]@3+w+^@P /@(@_@_@9+:@h.e.(.3+h.{@<@[@      ",
"              }@|@1@2@3@4@;@{.5@6@{.e.7@8@9@0@a@b@c@;@^+d@^+^+e@2+f@g@h@i@j@k@3+l@R R /.2+m@n@      ",
"            o@p@q@r@s@t@~@;@u@R 9 ;@v@w@x@y@z@A@B@C@D@~ E@F@G@H@~ I@G@/.J@ .K@L@M@l@u@N@O@P@        ",
"            Q@R@h+S@T@U@V@W@X@2+F@1 Y@Z@`@ #.#+#@###$#%#&#*#=#H@=#~ -#/+(.v.J@;#>#,#'#)#!#          ",
"          ~#{#]#^#/#(#_#:#<#[#X+I@;@}#|#1#2#3#4#5#6#7#8#9#0#=#a#b#c#d#..V w.Q ;@~ : e#f#            ",
"        g#h#i#j#k#l#&@m#  n#e#~ ~ [#%#o#p#q#r#s#t#u#v#w#x#y#z#A#e@B#C#D# .e.4@G@~ I@E#F#            ",
"        G#H#g+I#J#K#L#      M#N#e@O#P#Q#R#S#r#S#T#U#V#W#X#Y#Z#=#e@2+`# $.$+$@$[#[##$$$              ",
"        %$I#&$*$=$-$          - ;$%#~@>$,$'$)$!$~${$]$^$/$($_$z#~ ;@u@:$<$[$}$|$1$2$                ",
"        3$4$5$6$7$              8$9$0$a$b$c$d$e$f$g$h$i$/$j$k$l$[#I@u@/+^+1 m$n$o$                  ",
"        p$q$                        r$s$t$u$v$v$w$x$h$y$z$j$A$B$[#I@1 C$D$E$F$                      ",
"                                        G$H$I$J$K$L$M$N$X#O$P$Q$R$S$T$U$V$                          ",
"                                        W$X$Y$Z$`$ %.%+%@%#%s $%2$                                  ",
"                                        %%&%*%=%-%;%>%,%'%                                          ",
"                                      )%!%g+~%{%r#]%^%/%                                            ",
"                                      (%_%:%<%[%}%|%                                                ",
"                                        1%2%G$                                                      ",
"                                                                                                    ",
"                                                                                                    ",
"                                                                                                    ",
"                                                                                                    ",
"                                                                                                    ",
"                                                                                                    ",
"                                                                                                    ",
"                                                                                                    ",
"                                                                                                    ",
"                                                                                                    "};
