/* XPM */
static char *collect[] = {
"16 16 2 1",
"0 c none",
"1 c #00FFFF",
"0000000000000000",
"0000001100000000",
"0000011110000000",
"0000111111000000",
"0001111111100000",
"0011111111110000",
"0011111111110000",
"0111111111111000",
"0111111111111000",
"0011111111110000",
"0011111111110000",
"0001111111100000",
"0000111111000000",
"0000011110000000",
"0000001100000000",
"0000000000000000"
};
