/* XPM */
static char * fondo_marino_xpm[] = {
"16 16 4 1",
" 	c None",
".	c #004080",
"+	c #0070C0",
"@	c #E0C090",
"                ",
"       ..       ",
"      ....      ",
"     ......     ",
"    ........    ",
"   ..........   ",
"  ++++++++++@   ",
"  ++++++++++@   ",
"  ++++++++++@   ",
"  ++++++++++@   ",
"  ++++++++++@   ",
"  ++++++++++@   ",
"  ++++++++++@   ",
"  ++++++++++@   ",
"  ++++++++++@   ",
"  @@@@@@@@@@@@  "
};