/* XPM */
static char *exit[] = {
"32 32 2 1",
"0 c none",
"1 c #FFD700",
"00000000000000000000000000000000",
"00000000000000000000000000000000",
"00111111111111111111111111111000",
"00111111111111111111111111111000",
"00100000000000000000000000001000",
"00100000000000000000000000001000",
"00101111111111111111111111001000",
"00101111111111111111111111001000",
"00101000000000000000000001001000",
"00101000000000000000000001001000",
"00101011111100001111100001001000",
"00101011111100001111100001001000",
"00101010101000001010100001001000",
"00101010101000001010100001001000",
"00101010101000001010100001001000",
"00101010101000001010100001001000",
"00101010101000001010100001001000",
"00101010101000001010100001001000",
"00101011111100001111100001001000",
"00101011111100001111100001001000",
"00101000000000000000000001001000",
"00101000000000000000000001001000",
"00101111111111111111111111001000",
"00101111111111111111111111001000",
"00100000000000000000000000001000",
"00100000000000000000000000001000",
"00111111111111111111111111111000",
"00111111111111111111111111111000",
"00000000000000000000000000000000",
"00000000000000000000000000000000",
"00000000000000000000000000000000",
"00000000000000000000000000000000"
};
