/* XPM */
static char *floor[] = {
"16 16 2 1",
"0 c none",
"1 c #AAAAAA",
"1111111111111111",
"1000000000000001",
"1000000000000001",
"1000000000000001",
"1000000000000001",
"1000000000000001",
"1000000000000001",
"1000000000000001",
"1000000000000001",
"1000000000000001",
"1000000000000001",
"1000000000000001",
"1000000000000001",
"1000000000000001",
"1000000000000001",
"1111111111111111"
};