/* XPM */
static char * space_xpm[] = {
"100 100 6 1",
" 	c #000000",
".	c #FFFFFF",
"+	c #333355",
"@	c #444477",
"#	c #663399",
"$	c #553377",
"                    .                                        . . .                                  ",
"      .                                                                     .       .               ",
"                .        . +++++            .                                          .            ",
"                          +++++++                   .              .     .                   .  .   ",
"          . .        ..  +++++++++        .            .                                            ",
"                        +++++++++++   .                       .    .  .   .                         ",
"             @@@@@      +++++++++++          .                                . .        .         .",
"       .    @@@@@@@     ++++++++++++                          .             .               .       ",
"        .  @@@@@@@@@    +++++++++++++             .            .                                    ",
"  .. .    @@@@@@@@@@@   +++++++++++++                                         .                     ",
"          @@@@@@@@@@@    ++++++++++++       .                                                  .    ",
"          @@@@@@@@@@@     +++++++++++                                       .                   .   ",
".         @@@@@@@@@@@     +++++++++++                           .                      .            ",
"         .@@@@@@@@@@@.     +++++++++      .                                                    . .  ",
"           @@@@@@@@@.       +++++++                                                        ..       ",
"            @@@@@@@       .  +++++                .       .                                         ",
"             @@@@@          @@@@@                                                              .    ",
"                 .         @@@@@@@       .                    .            .                 .      ",
"   .             .      . @@@@@@@@@ .  .   .                                                        ",
"                   .     @@@@@@@@@@@                   .                               .            ",
"                    .    @@@@@@@@@@@                            .                                   ",
"                   ..    @@@@@@@@@@@                                     .                          ",
"  . .                    @@@@@@@@@@@                  .        .    .               .      .        ",
"               .         @@@@@@@@@@@                                               .                ",
"          @@@@@           @@@@@@@@@                         .           .        .       .          ",
"         @@@@@@@         . @@@@@@@                            .                                     ",
"   .    @@@@@@@@@  .       .@@@@@                                                        .          ",
"       @@@@@@@@@@@                         .                         ..                             ",
"       @@@@@@@@@@@                             .   .                              .                 ",
"       @@@@@@@@@@@                              .                      .  .    .                    ",
"       @@@@@@@@@@@            .             .       @@@@@.                                          ",
"   .   @@@@@@@@@@@          +++++                  @@@@@@@       .                        .         ",
"     .  @@@@@@@@@  .    .  +++++++                @@@@@@@@@               .              .          ",
"         @@@@@@@          +++++++++              @@@@@@@@@@@                                        ",
"          @@@@@          +++++++++++             @@@@@@@@@@@. .                              . .    ",
"                         +++++++++++             @@@@@@@@@@@   .                                    ",
"                         +++++++++++            .@@@@@@@@@@@                    .                   ",
"             .           +++++++++++             @@@@@@@@@@@                                        ",
"                         +++++++++++              @@@@@@@@@ .         .  .      .                   ",
"                         .+++++++++    .           @@+++++       .          .                       ",
"             .  .          +++++++              .   +++++++     .     .                   .         ",
"                            +++++                  +++++++++    .                   .             . ",
"                           .    . .+++++        . +++++++++++   .                        .          ",
"                                  +++++++   .     +++++++++++               .             .       . ",
"  .                              +++++++++        +++++++++++                                       ",
"                           ..   +++++++++++       +++++++++++                                       ",
"                        .       +++++++++++       +++++++++++    #####                              ",
"                       .        +++++++++++        +++++++++    #######                .            ",
"                                +++++++++++    .    +++++++    #########          .                 ",
".                       .       +++++++++++          +++++    ########### .    .         .    .     ",
"  .                              +++++++++         ..        .###########  .                        ",
"       ..                   .     +++++++           .         ###########                         . ",
"    .      .                       +++++   .                  ###########             .             ",
"        .  .     .                             .        .     ###########          .                ",
"                                           .                   #########                            ",
"        .          .                                            #######      .                      ",
".               .                         .  ..                  #####     .                        ",
"             .              .   .                                      ..       .    .              ",
"                                    .                            .                ..                ",
"                                                                                   .                ",
"                .@@@@@        .                      .                                      .       ",
"                @@@@@@@           .   .         .                .                                  ",
"               @@@@@@@@@                                                                            ",
"              @@@@@@@@@@@                                   .                                       ",
"              @@@@@@@@@@@                                              .         .                  ",
"              @@@@@@@@@@@                 . .                                                       ",
"             .@@@@@@@@@@@                      .    .                                               ",
"     .      . @@@@@@@@@@@                     .               .             .          .            ",
"               @@@@@@@@@                                                                            ",
"          .     @@@@@@@.     .           $$$$$                         .                            ",
".       .        @@@@@          .       $$$$$$$                                            .        ",
"     .          .         .   .        $$$$$$$$$                                                 .  ",
"             .                        $$$$$$$$$@@@@@.                                               ",
"   .                     .            $$$$$$$$@@@@@@@             .    .          .                 ",
"   .                                  $$$$$$$@@@@@@@@@     .                                        ",
"                                    . $$$$$$@@@@@@@@@@@                          .    .             ",
"                        .   ..        $$$$$$@@@@@@@@@@@                                         .   ",
"             .       #####     +++++   $$$$$@@@@@@@@@@@ .                        .          .       ",
"             .   .  #######   +++++++   $$$$@@@@@@@@@@@                         .  .                ",
"                   ######### +++++++++   $$$@@@@@@@@@@@                                             ",
"    .             ###########++++++++++      @@@@@@@@@       . .                  .          .      ",
"                  ###########++++++++++       @@@@@@@            .       .                          ",
"                  ###########++++++++++        @@@@@                    .                  .        ",
"   ..  .          ###########++++++++++                                               .             ",
"                  ###########++++++++++                                       .                     ",
"                .  ######### +++++++++                        .                                 .   ",
"       .            #######   +++++++  . .                         .           .                    ",
"                     #####     +++++                           .            .  .              .     ",
"         .                     .                                                   .     .          ",
"     .                           .                      .                                           ",
"        .  .     .   .              .                                                  .         . .",
"            .                .                     .                       .   . .                  ",
"                               .  .              .                .                 .               ",
"  .                                               .                       .            .           .",
"  .                                       . .                                 ..                    ",
"          .                .                 .            .     .                                 . ",
"                                  .                         .       .                               ",
"                .          .                                            .                           ",
".           .          .                  .                                   .  .                  ",
"           .           .                                                                   .       ."};
