/* XPM */
static char * floor2_xpm[] = {
"100 100 64 1",
" 	c #AAAAAA",
".	c #ABABAB",
"+	c #A9A9A9",
"@	c #A8A8A8",
"#	c #A7A7A7",
"$	c #A6A6A6",
"%	c #A4A4A4",
"&	c #A3A3A3",
"*	c #A2A2A2",
"=	c #A1A1A1",
"-	c #A0A0A0",
";	c #A5A5A5",
">	c #9D9D9D",
",	c #9A9A9A",
"'	c #989898",
")	c #979797",
"!	c #969696",
"~	c #9E9E9E",
"{	c #999999",
"]	c #949494",
"^	c #8F8F8F",
"/	c #8B8B8B",
"(	c #898989",
"_	c #888888",
":	c #929292",
"<	c #8A8A8A",
"[	c #828282",
"}	c #7C7C7C",
"|	c #787878",
"1	c #777777",
"2	c #767676",
"3	c #7F7F7F",
"4	c #747474",
"5	c #6B6B6B",
"6	c #656565",
"7	c #626262",
"8	c #616161",
"9	c #636363",
"0	c #585858",
"a	c #4F4F4F",
"b	c #4A4A4A",
"c	c #484848",
"d	c #494949",
"e	c #4B4B4B",
"f	c #4C4C4C",
"g	c #474747",
"h	c #393939",
"i	c #303030",
"j	c #2D2D2D",
"k	c #2E2E2E",
"l	c #313131",
"m	c #333333",
"n	c #242424",
"o	c #161616",
"p	c #0F0F0F",
"q	c #111111",
"r	c #191919",
"s	c #1A1A1A",
"t	c #070707",
"u	c #020202",
"v	c #030303",
"w	c #050505",
"x	c #060606",
"y	c #000000",
"      ........................................................................................      ",
"           +++                                                                        +++           ",
"    +@@####$$$$######################################################################$$$$####@@+    ",
"   +@$%&*==------------------------------------------------------------------------------==*&%$@+   ",
"  +@;&->,')!!!!!!!!!!!!!!!!!!!!!!!!!!!!!!!!!!!!!!!!!!!!!!!!!!!!!!!!!!!!!!!!!!!!!!!!!!!!!!)',>-&;@+  ",
"  @$&~{]^/(______________________________________________________________________________(/^]{~&$@  ",
". @%-{:<[}|122111111111111111111111111111111111111111111111111111111111111111111111111221|}[<:{-%@ .",
". #&>]<34567887999999999999999999999999999999999999999999999999999999999999999999999978876543<]>&# .",
". #*,^[460abcdbeffffffffffffffffffffffffffffffffffffffffffffffffffffffffffffffffffffebdcba064[^,*# .",
". #='/}50ghijklmmmmmmmmmmmmmmmmmmmmmmmmmmmmmmmmmmmmmmmmmmmmmmmmmmmmmmmmmmmmmmmmmmmmmmlkjihg05}/'=# .",
". #=)(|6ahnopqorssssssssssssssssssssssssssssssssssssssssssssssssssssssssssssssssssssroqponha6|()=# .",
".+$-!_17biotuvwxttttttttttttttttttttttttttttttttttttttttttttttttttttttttttttttttttttxwvutoib71_!-$+.",
".+$-!_28cjpuyyyyyyyyyyyyyyyyyyyyyyyyyyyyyyyyyyyyyyyyyyyyyyyyyyyyyyyyyyyyyyyyyyyyyyyyyyyyupjc82_!-$+.",
".+$-!_28dkqvyyyyyyyyyyyyyyyyyyyyyyyyyyyyyyyyyyyyyyyyyyyyyyyyyyyyyyyyyyyyyyyyyyyyyyyyyyyyvqkd82_!-$+.",
". $-!_17blowyyyyyyyyyyyyyyyyyyyyyyyyyyyyyyyyyyyyyyyyyyyyyyyyyyyyyyyyyyyyyyyyyyyyyyyyyyyywolb71_!-$ .",
". #-!_19emrxyyyyyyyyyyyyyyyyyyyyyyyyyyyyyyyyyyyyyyyyyyyyyyyyyyyyyyyyyyyyyyyyyyyyyyyyyyyyxrme91_!-# .",
". #-!_19fmstyyyyyyyyyyyyyyyyyyyyyyyyyyyyyyyyyyyyyyyyyyyyyyyyyyyyyyyyyyyyyyyyyyyyyyyyyyyytsmf91_!-# .",
". #-!_19fmstyyyyyyyyyyyyyyyyyyyyyyyyyyyyyyyyyyyyyyyyyyyyyyyyyyyyyyyyyyyyyyyyyyyyyyyyyyyytsmf91_!-# .",
". #-!_19fmstyyyyyyyyyyyyyyyyyyyyyyyyyyyyyyyyyyyyyyyyyyyyyyyyyyyyyyyyyyyyyyyyyyyyyyyyyyyytsmf91_!-# .",
". #-!_19fmstyyyyyyyyyyyyyyyyyyyyyyyyyyyyyyyyyyyyyyyyyyyyyyyyyyyyyyyyyyyyyyyyyyyyyyyyyyyytsmf91_!-# .",
". #-!_19fmstyyyyyyyyyyyyyyyyyyyyyyyyyyyyyyyyyyyyyyyyyyyyyyyyyyyyyyyyyyyyyyyyyyyyyyyyyyyytsmf91_!-# .",
". #-!_19fmstyyyyyyyyyyyyyyyyyyyyyyyyyyyyyyyyyyyyyyyyyyyyyyyyyyyyyyyyyyyyyyyyyyyyyyyyyyyytsmf91_!-# .",
". #-!_19fmstyyyyyyyyyyyyyyyyyyyyyyyyyyyyyyyyyyyyyyyyyyyyyyyyyyyyyyyyyyyyyyyyyyyyyyyyyyyytsmf91_!-# .",
". #-!_19fmstyyyyyyyyyyyyyyyyyyyyyyyyyyyyyyyyyyyyyyyyyyyyyyyyyyyyyyyyyyyyyyyyyyyyyyyyyyyytsmf91_!-# .",
". #-!_19fmstyyyyyyyyyyyyyyyyyyyyyyyyyyyyyyyyyyyyyyyyyyyyyyyyyyyyyyyyyyyyyyyyyyyyyyyyyyyytsmf91_!-# .",
". #-!_19fmstyyyyyyyyyyyyyyyyyyyyyyyyyyyyyyyyyyyyyyyyyyyyyyyyyyyyyyyyyyyyyyyyyyyyyyyyyyyytsmf91_!-# .",
". #-!_19fmstyyyyyyyyyyyyyyyyyyyyyyyyyyyyyyyyyyyyyyyyyyyyyyyyyyyyyyyyyyyyyyyyyyyyyyyyyyyytsmf91_!-# .",
". #-!_19fmstyyyyyyyyyyyyyyyyyyyyyyyyyyyyyyyyyyyyyyyyyyyyyyyyyyyyyyyyyyyyyyyyyyyyyyyyyyyytsmf91_!-# .",
". #-!_19fmstyyyyyyyyyyyyyyyyyyyyyyyyyyyyyyyyyyyyyyyyyyyyyyyyyyyyyyyyyyyyyyyyyyyyyyyyyyyytsmf91_!-# .",
". #-!_19fmstyyyyyyyyyyyyyyyyyyyyyyyyyyyyyyyyyyyyyyyyyyyyyyyyyyyyyyyyyyyyyyyyyyyyyyyyyyyytsmf91_!-# .",
". #-!_19fmstyyyyyyyyyyyyyyyyyyyyyyyyyyyyyyyyyyyyyyyyyyyyyyyyyyyyyyyyyyyyyyyyyyyyyyyyyyyytsmf91_!-# .",
". #-!_19fmstyyyyyyyyyyyyyyyyyyyyyyyyyyyyyyyyyyyyyyyyyyyyyyyyyyyyyyyyyyyyyyyyyyyyyyyyyyyytsmf91_!-# .",
". #-!_19fmstyyyyyyyyyyyyyyyyyyyyyyyyyyyyyyyyyyyyyyyyyyyyyyyyyyyyyyyyyyyyyyyyyyyyyyyyyyyytsmf91_!-# .",
". #-!_19fmstyyyyyyyyyyyyyyyyyyyyyyyyyyyyyyyyyyyyyyyyyyyyyyyyyyyyyyyyyyyyyyyyyyyyyyyyyyyytsmf91_!-# .",
". #-!_19fmstyyyyyyyyyyyyyyyyyyyyyyyyyyyyyyyyyyyyyyyyyyyyyyyyyyyyyyyyyyyyyyyyyyyyyyyyyyyytsmf91_!-# .",
". #-!_19fmstyyyyyyyyyyyyyyyyyyyyyyyyyyyyyyyyyyyyyyyyyyyyyyyyyyyyyyyyyyyyyyyyyyyyyyyyyyyytsmf91_!-# .",
". #-!_19fmstyyyyyyyyyyyyyyyyyyyyyyyyyyyyyyyyyyyyyyyyyyyyyyyyyyyyyyyyyyyyyyyyyyyyyyyyyyyytsmf91_!-# .",
". #-!_19fmstyyyyyyyyyyyyyyyyyyyyyyyyyyyyyyyyyyyyyyyyyyyyyyyyyyyyyyyyyyyyyyyyyyyyyyyyyyyytsmf91_!-# .",
". #-!_19fmstyyyyyyyyyyyyyyyyyyyyyyyyyyyyyyyyyyyyyyyyyyyyyyyyyyyyyyyyyyyyyyyyyyyyyyyyyyyytsmf91_!-# .",
". #-!_19fmstyyyyyyyyyyyyyyyyyyyyyyyyyyyyyyyyyyyyyyyyyyyyyyyyyyyyyyyyyyyyyyyyyyyyyyyyyyyytsmf91_!-# .",
". #-!_19fmstyyyyyyyyyyyyyyyyyyyyyyyyyyyyyyyyyyyyyyyyyyyyyyyyyyyyyyyyyyyyyyyyyyyyyyyyyyyytsmf91_!-# .",
". #-!_19fmstyyyyyyyyyyyyyyyyyyyyyyyyyyyyyyyyyyyyyyyyyyyyyyyyyyyyyyyyyyyyyyyyyyyyyyyyyyyytsmf91_!-# .",
". #-!_19fmstyyyyyyyyyyyyyyyyyyyyyyyyyyyyyyyyyyyyyyyyyyyyyyyyyyyyyyyyyyyyyyyyyyyyyyyyyyyytsmf91_!-# .",
". #-!_19fmstyyyyyyyyyyyyyyyyyyyyyyyyyyyyyyyyyyyyyyyyyyyyyyyyyyyyyyyyyyyyyyyyyyyyyyyyyyyytsmf91_!-# .",
". #-!_19fmstyyyyyyyyyyyyyyyyyyyyyyyyyyyyyyyyyyyyyyyyyyyyyyyyyyyyyyyyyyyyyyyyyyyyyyyyyyyytsmf91_!-# .",
". #-!_19fmstyyyyyyyyyyyyyyyyyyyyyyyyyyyyyyyyyyyyyyyyyyyyyyyyyyyyyyyyyyyyyyyyyyyyyyyyyyyytsmf91_!-# .",
". #-!_19fmstyyyyyyyyyyyyyyyyyyyyyyyyyyyyyyyyyyyyyyyyyyyyyyyyyyyyyyyyyyyyyyyyyyyyyyyyyyyytsmf91_!-# .",
". #-!_19fmstyyyyyyyyyyyyyyyyyyyyyyyyyyyyyyyyyyyyyyyyyyyyyyyyyyyyyyyyyyyyyyyyyyyyyyyyyyyytsmf91_!-# .",
". #-!_19fmstyyyyyyyyyyyyyyyyyyyyyyyyyyyyyyyyyyyyyyyyyyyyyyyyyyyyyyyyyyyyyyyyyyyyyyyyyyyytsmf91_!-# .",
". #-!_19fmstyyyyyyyyyyyyyyyyyyyyyyyyyyyyyyyyyyyyyyyyyyyyyyyyyyyyyyyyyyyyyyyyyyyyyyyyyyyytsmf91_!-# .",
". #-!_19fmstyyyyyyyyyyyyyyyyyyyyyyyyyyyyyyyyyyyyyyyyyyyyyyyyyyyyyyyyyyyyyyyyyyyyyyyyyyyytsmf91_!-# .",
". #-!_19fmstyyyyyyyyyyyyyyyyyyyyyyyyyyyyyyyyyyyyyyyyyyyyyyyyyyyyyyyyyyyyyyyyyyyyyyyyyyyytsmf91_!-# .",
". #-!_19fmstyyyyyyyyyyyyyyyyyyyyyyyyyyyyyyyyyyyyyyyyyyyyyyyyyyyyyyyyyyyyyyyyyyyyyyyyyyyytsmf91_!-# .",
". #-!_19fmstyyyyyyyyyyyyyyyyyyyyyyyyyyyyyyyyyyyyyyyyyyyyyyyyyyyyyyyyyyyyyyyyyyyyyyyyyyyytsmf91_!-# .",
". #-!_19fmstyyyyyyyyyyyyyyyyyyyyyyyyyyyyyyyyyyyyyyyyyyyyyyyyyyyyyyyyyyyyyyyyyyyyyyyyyyyytsmf91_!-# .",
". #-!_19fmstyyyyyyyyyyyyyyyyyyyyyyyyyyyyyyyyyyyyyyyyyyyyyyyyyyyyyyyyyyyyyyyyyyyyyyyyyyyytsmf91_!-# .",
". #-!_19fmstyyyyyyyyyyyyyyyyyyyyyyyyyyyyyyyyyyyyyyyyyyyyyyyyyyyyyyyyyyyyyyyyyyyyyyyyyyyytsmf91_!-# .",
". #-!_19fmstyyyyyyyyyyyyyyyyyyyyyyyyyyyyyyyyyyyyyyyyyyyyyyyyyyyyyyyyyyyyyyyyyyyyyyyyyyyytsmf91_!-# .",
". #-!_19fmstyyyyyyyyyyyyyyyyyyyyyyyyyyyyyyyyyyyyyyyyyyyyyyyyyyyyyyyyyyyyyyyyyyyyyyyyyyyytsmf91_!-# .",
". #-!_19fmstyyyyyyyyyyyyyyyyyyyyyyyyyyyyyyyyyyyyyyyyyyyyyyyyyyyyyyyyyyyyyyyyyyyyyyyyyyyytsmf91_!-# .",
". #-!_19fmstyyyyyyyyyyyyyyyyyyyyyyyyyyyyyyyyyyyyyyyyyyyyyyyyyyyyyyyyyyyyyyyyyyyyyyyyyyyytsmf91_!-# .",
". #-!_19fmstyyyyyyyyyyyyyyyyyyyyyyyyyyyyyyyyyyyyyyyyyyyyyyyyyyyyyyyyyyyyyyyyyyyyyyyyyyyytsmf91_!-# .",
". #-!_19fmstyyyyyyyyyyyyyyyyyyyyyyyyyyyyyyyyyyyyyyyyyyyyyyyyyyyyyyyyyyyyyyyyyyyyyyyyyyyytsmf91_!-# .",
". #-!_19fmstyyyyyyyyyyyyyyyyyyyyyyyyyyyyyyyyyyyyyyyyyyyyyyyyyyyyyyyyyyyyyyyyyyyyyyyyyyyytsmf91_!-# .",
". #-!_19fmstyyyyyyyyyyyyyyyyyyyyyyyyyyyyyyyyyyyyyyyyyyyyyyyyyyyyyyyyyyyyyyyyyyyyyyyyyyyytsmf91_!-# .",
". #-!_19fmstyyyyyyyyyyyyyyyyyyyyyyyyyyyyyyyyyyyyyyyyyyyyyyyyyyyyyyyyyyyyyyyyyyyyyyyyyyyytsmf91_!-# .",
". #-!_19fmstyyyyyyyyyyyyyyyyyyyyyyyyyyyyyyyyyyyyyyyyyyyyyyyyyyyyyyyyyyyyyyyyyyyyyyyyyyyytsmf91_!-# .",
". #-!_19fmstyyyyyyyyyyyyyyyyyyyyyyyyyyyyyyyyyyyyyyyyyyyyyyyyyyyyyyyyyyyyyyyyyyyyyyyyyyyytsmf91_!-# .",
". #-!_19fmstyyyyyyyyyyyyyyyyyyyyyyyyyyyyyyyyyyyyyyyyyyyyyyyyyyyyyyyyyyyyyyyyyyyyyyyyyyyytsmf91_!-# .",
". #-!_19fmstyyyyyyyyyyyyyyyyyyyyyyyyyyyyyyyyyyyyyyyyyyyyyyyyyyyyyyyyyyyyyyyyyyyyyyyyyyyytsmf91_!-# .",
". #-!_19fmstyyyyyyyyyyyyyyyyyyyyyyyyyyyyyyyyyyyyyyyyyyyyyyyyyyyyyyyyyyyyyyyyyyyyyyyyyyyytsmf91_!-# .",
". #-!_19fmstyyyyyyyyyyyyyyyyyyyyyyyyyyyyyyyyyyyyyyyyyyyyyyyyyyyyyyyyyyyyyyyyyyyyyyyyyyyytsmf91_!-# .",
". #-!_19fmstyyyyyyyyyyyyyyyyyyyyyyyyyyyyyyyyyyyyyyyyyyyyyyyyyyyyyyyyyyyyyyyyyyyyyyyyyyyytsmf91_!-# .",
". #-!_19fmstyyyyyyyyyyyyyyyyyyyyyyyyyyyyyyyyyyyyyyyyyyyyyyyyyyyyyyyyyyyyyyyyyyyyyyyyyyyytsmf91_!-# .",
". #-!_19fmstyyyyyyyyyyyyyyyyyyyyyyyyyyyyyyyyyyyyyyyyyyyyyyyyyyyyyyyyyyyyyyyyyyyyyyyyyyyytsmf91_!-# .",
". #-!_19fmstyyyyyyyyyyyyyyyyyyyyyyyyyyyyyyyyyyyyyyyyyyyyyyyyyyyyyyyyyyyyyyyyyyyyyyyyyyyytsmf91_!-# .",
". #-!_19fmstyyyyyyyyyyyyyyyyyyyyyyyyyyyyyyyyyyyyyyyyyyyyyyyyyyyyyyyyyyyyyyyyyyyyyyyyyyyytsmf91_!-# .",
". #-!_19fmstyyyyyyyyyyyyyyyyyyyyyyyyyyyyyyyyyyyyyyyyyyyyyyyyyyyyyyyyyyyyyyyyyyyyyyyyyyyytsmf91_!-# .",
". #-!_19fmstyyyyyyyyyyyyyyyyyyyyyyyyyyyyyyyyyyyyyyyyyyyyyyyyyyyyyyyyyyyyyyyyyyyyyyyyyyyytsmf91_!-# .",
". #-!_19fmstyyyyyyyyyyyyyyyyyyyyyyyyyyyyyyyyyyyyyyyyyyyyyyyyyyyyyyyyyyyyyyyyyyyyyyyyyyyytsmf91_!-# .",
". #-!_19fmstyyyyyyyyyyyyyyyyyyyyyyyyyyyyyyyyyyyyyyyyyyyyyyyyyyyyyyyyyyyyyyyyyyyyyyyyyyyytsmf91_!-# .",
". #-!_19fmstyyyyyyyyyyyyyyyyyyyyyyyyyyyyyyyyyyyyyyyyyyyyyyyyyyyyyyyyyyyyyyyyyyyyyyyyyyyytsmf91_!-# .",
". #-!_19fmstyyyyyyyyyyyyyyyyyyyyyyyyyyyyyyyyyyyyyyyyyyyyyyyyyyyyyyyyyyyyyyyyyyyyyyyyyyyytsmf91_!-# .",
". #-!_19fmstyyyyyyyyyyyyyyyyyyyyyyyyyyyyyyyyyyyyyyyyyyyyyyyyyyyyyyyyyyyyyyyyyyyyyyyyyyyytsmf91_!-# .",
". #-!_19emrxyyyyyyyyyyyyyyyyyyyyyyyyyyyyyyyyyyyyyyyyyyyyyyyyyyyyyyyyyyyyyyyyyyyyyyyyyyyyxrme91_!-# .",
". $-!_17blowyyyyyyyyyyyyyyyyyyyyyyyyyyyyyyyyyyyyyyyyyyyyyyyyyyyyyyyyyyyyyyyyyyyyyyyyyyyywolb71_!-$ .",
".+$-!_28dkqvyyyyyyyyyyyyyyyyyyyyyyyyyyyyyyyyyyyyyyyyyyyyyyyyyyyyyyyyyyyyyyyyyyyyyyyyyyyyvqkd82_!-$+.",
".+$-!_28cjpuyyyyyyyyyyyyyyyyyyyyyyyyyyyyyyyyyyyyyyyyyyyyyyyyyyyyyyyyyyyyyyyyyyyyyyyyyyyyupjc82_!-$+.",
".+$-!_17biotuvwxttttttttttttttttttttttttttttttttttttttttttttttttttttttttttttttttttttxwvutoib71_!-$+.",
". #=)(|6ahnopqorssssssssssssssssssssssssssssssssssssssssssssssssssssssssssssssssssssroqponha6|()=# .",
". #='/}50ghijklmmmmmmmmmmmmmmmmmmmmmmmmmmmmmmmmmmmmmmmmmmmmmmmmmmmmmmmmmmmmmmmmmmmmmmlkjihg05}/'=# .",
". #*,^[460abcdbeffffffffffffffffffffffffffffffffffffffffffffffffffffffffffffffffffffebdcba064[^,*# .",
". #&>]<34567887999999999999999999999999999999999999999999999999999999999999999999999978876543<]>&# .",
". @%-{:<[}|122111111111111111111111111111111111111111111111111111111111111111111111111221|}[<:{-%@ .",
"  @$&~{]^/(______________________________________________________________________________(/^]{~&$@  ",
"  +@;&->,')!!!!!!!!!!!!!!!!!!!!!!!!!!!!!!!!!!!!!!!!!!!!!!!!!!!!!!!!!!!!!!!!!!!!!!!!!!!!!!)',>-&;@+  ",
"   +@$%&*==------------------------------------------------------------------------------==*&%$@+   ",
"    +@@####$$$$######################################################################$$$$####@@+    ",
"           +++                                                                        +++           ",
"      ........................................................................................      "};
