/* XPM */
static char * floor2_xpm[] = {
"64 64 31 1",
" 	c #AAAAAA",
".	c #ABABAB",
"+	c #A9A9A9",
"@	c #A8A8A8",
"#	c #A7A7A7",
"$	c #A5A5A5",
"%	c #A2A2A2",
"&	c #9F9F9F",
"*	c #9E9E9E",
"=	c #9D9D9D",
"-	c #979797",
";	c #8F8F8F",
">	c #8A8A8A",
",	c #898989",
"'	c #888888",
")	c #797979",
"!	c #6F6F6F",
"~	c #6B6B6B",
"{	c #6C6C6C",
"]	c #616161",
"^	c #4D4D4D",
"/	c #454545",
"(	c #444444",
"_	c #474747",
":	c #484848",
"<	c #2C2C2C",
"[	c #131313",
"}	c #121212",
"|	c #1C1C1C",
"1	c #1E1E1E",
"2	c #000000",
"    ........................................................    ",
"   +@@@##@@@@@@@@@@@@@@@@@@@@@@@@@@@@@@@@@@@@@@@@@@@@@@##@@@+   ",
"  @$%&*==================================================*&%$@  ",
" +$&-;>,',,,,,,,,,,,,,,,,,,,,,,,,,,,,,,,,,,,,,,,,,,,,,,',>;-&$+ ",
".@%-')!~~{{{{{{{{{{{{{{{{{{{{{{{{{{{{{{{{{{{{{{{{{{{{{{~~!)'-%@.",
".@&;)]^/(_::::::::::::::::::::::::::::::::::::::::::::_(/^]);&@.",
".@*>!^<[}|11111111111111111111111111111111111111111111|}[<^!>*@.",
".#=,~/[22222222222222222222222222222222222222222222222222[/~,=#.",
".#='~(}22222222222222222222222222222222222222222222222222}(~'=#.",
".@=,{_|22222222222222222222222222222222222222222222222222|_{,=@.",
".@=,{:1222222222222222222222222222222222222222222222222221:{,=@.",
".@=,{:1222222222222222222222222222222222222222222222222221:{,=@.",
".@=,{:1222222222222222222222222222222222222222222222222221:{,=@.",
".@=,{:1222222222222222222222222222222222222222222222222221:{,=@.",
".@=,{:1222222222222222222222222222222222222222222222222221:{,=@.",
".@=,{:1222222222222222222222222222222222222222222222222221:{,=@.",
".@=,{:1222222222222222222222222222222222222222222222222221:{,=@.",
".@=,{:1222222222222222222222222222222222222222222222222221:{,=@.",
".@=,{:1222222222222222222222222222222222222222222222222221:{,=@.",
".@=,{:1222222222222222222222222222222222222222222222222221:{,=@.",
".@=,{:1222222222222222222222222222222222222222222222222221:{,=@.",
".@=,{:1222222222222222222222222222222222222222222222222221:{,=@.",
".@=,{:1222222222222222222222222222222222222222222222222221:{,=@.",
".@=,{:1222222222222222222222222222222222222222222222222221:{,=@.",
".@=,{:1222222222222222222222222222222222222222222222222221:{,=@.",
".@=,{:1222222222222222222222222222222222222222222222222221:{,=@.",
".@=,{:1222222222222222222222222222222222222222222222222221:{,=@.",
".@=,{:1222222222222222222222222222222222222222222222222221:{,=@.",
".@=,{:1222222222222222222222222222222222222222222222222221:{,=@.",
".@=,{:1222222222222222222222222222222222222222222222222221:{,=@.",
".@=,{:1222222222222222222222222222222222222222222222222221:{,=@.",
".@=,{:1222222222222222222222222222222222222222222222222221:{,=@.",
".@=,{:1222222222222222222222222222222222222222222222222221:{,=@.",
".@=,{:1222222222222222222222222222222222222222222222222221:{,=@.",
".@=,{:1222222222222222222222222222222222222222222222222221:{,=@.",
".@=,{:1222222222222222222222222222222222222222222222222221:{,=@.",
".@=,{:1222222222222222222222222222222222222222222222222221:{,=@.",
".@=,{:1222222222222222222222222222222222222222222222222221:{,=@.",
".@=,{:1222222222222222222222222222222222222222222222222221:{,=@.",
".@=,{:1222222222222222222222222222222222222222222222222221:{,=@.",
".@=,{:1222222222222222222222222222222222222222222222222221:{,=@.",
".@=,{:1222222222222222222222222222222222222222222222222221:{,=@.",
".@=,{:1222222222222222222222222222222222222222222222222221:{,=@.",
".@=,{:1222222222222222222222222222222222222222222222222221:{,=@.",
".@=,{:1222222222222222222222222222222222222222222222222221:{,=@.",
".@=,{:1222222222222222222222222222222222222222222222222221:{,=@.",
".@=,{:1222222222222222222222222222222222222222222222222221:{,=@.",
".@=,{:1222222222222222222222222222222222222222222222222221:{,=@.",
".@=,{:1222222222222222222222222222222222222222222222222221:{,=@.",
".@=,{:1222222222222222222222222222222222222222222222222221:{,=@.",
".@=,{:1222222222222222222222222222222222222222222222222221:{,=@.",
".@=,{:1222222222222222222222222222222222222222222222222221:{,=@.",
".@=,{:1222222222222222222222222222222222222222222222222221:{,=@.",
".@=,{:1222222222222222222222222222222222222222222222222221:{,=@.",
".@=,{_|22222222222222222222222222222222222222222222222222|_{,=@.",
".#='~(}22222222222222222222222222222222222222222222222222}(~'=#.",
".#=,~/[22222222222222222222222222222222222222222222222222[/~,=#.",
".@*>!^<[}|11111111111111111111111111111111111111111111|}[<^!>*@.",
".@&;)]^/(_::::::::::::::::::::::::::::::::::::::::::::_(/^]);&@.",
".@%-')!~~{{{{{{{{{{{{{{{{{{{{{{{{{{{{{{{{{{{{{{{{{{{{{{~~!)'-%@.",
" +$&-;>,',,,,,,,,,,,,,,,,,,,,,,,,,,,,,,,,,,,,,,,,,,,,,,',>;-&$+ ",
"  @$%&*==================================================*&%$@  ",
"   +@@@##@@@@@@@@@@@@@@@@@@@@@@@@@@@@@@@@@@@@@@@@@@@@@@##@@@+   ",
"    ........................................................    "};
