/* XPM */
static char * collect_xpm[] = {
"50 50 494 2",
"  	c None",
". 	c #C2E6FC",
"+ 	c #C7E8FC",
"@ 	c #C4E7FC",
"# 	c #C1E4FA",
"$ 	c #C3E6FC",
"% 	c #C4E6FC",
"& 	c #C2E5FB",
"* 	c #C0E4FA",
"= 	c #C1E5FB",
"- 	c #C0E4F9",
"; 	c #C2E6FB",
"> 	c #BCDFF4",
", 	c #BEE1F6",
"' 	c #BBDDF2",
") 	c #BCE0F5",
"! 	c #C5E7FC",
"~ 	c #BDE0F6",
"{ 	c #BBDEF3",
"] 	c #BEE1F7",
"^ 	c #BDE0F5",
"/ 	c #BFE2F8",
"( 	c #B8D9ED",
"_ 	c #B0CEE1",
": 	c #B6D2E4",
"< 	c #BFE3F8",
"[ 	c #9DBACC",
"} 	c #847C7C",
"| 	c #AC6D37",
"1 	c #D1802C",
"2 	c #EC9543",
"3 	c #D6D1D5",
"4 	c #BFE2F7",
"5 	c #8296A3",
"6 	c #774B27",
"7 	c #E58902",
"8 	c #FA9500",
"9 	c #FB9600",
"0 	c #FB9601",
"a 	c #F6A058",
"b 	c #CDDBE8",
"c 	c #C3E5FB",
"d 	c #C3E5FA",
"e 	c #C4E5FB",
"f 	c #C0E3F9",
"g 	c #92A5B2",
"h 	c #C6771E",
"i 	c #F59201",
"j 	c #FB9500",
"k 	c #FB9400",
"l 	c #FB8E03",
"m 	c #F29C77",
"n 	c #E9AA9F",
"o 	c #ECA496",
"p 	c #ECA596",
"q 	c #E9AEA2",
"r 	c #E1B9B8",
"s 	c #CED3E0",
"t 	c #C8E6FA",
"u 	c #BCCAD6",
"v 	c #CD8139",
"w 	c #F99500",
"x 	c #FB8E00",
"y 	c #FC8700",
"z 	c #FC7E00",
"A 	c #FC7700",
"B 	c #FC7600",
"C 	c #FC7500",
"D 	c #FC7705",
"E 	c #FC7A0B",
"F 	c #FC780A",
"G 	c #ED947A",
"H 	c #F0E6EE",
"I 	c #F6F2FC",
"J 	c #EBECF9",
"K 	c #D3CAD3",
"L 	c #CCDAEA",
"M 	c #C4DBEC",
"N 	c #EBA474",
"O 	c #FB8D04",
"P 	c #FB8400",
"Q 	c #FA7800",
"R 	c #FC7A0C",
"S 	c #FC7704",
"T 	c #FA7821",
"U 	c #E9CFD3",
"V 	c #F9F3FD",
"W 	c #EACFD1",
"X 	c #F7792F",
"Y 	c #F97D39",
"Z 	c #F39273",
"` 	c #C1E5FA",
" .	c #C6E6FB",
"..	c #D7E8F9",
"+.	c #EFE9F0",
"@.	c #EAD4D7",
"#.	c #F97A2A",
"$.	c #FB7500",
"%.	c #FA7400",
"&.	c #FB7400",
"*.	c #FC7501",
"=.	c #EE8357",
"-.	c #F5EDF6",
";.	c #F7F0FA",
">.	c #E9967F",
",.	c #C55E1D",
"'.	c #CA7C60",
").	c #FB7402",
"!.	c #BEE2F7",
"~.	c #A1BFD1",
"{.	c #768590",
"].	c #84624F",
"^.	c #BA825E",
"/.	c #E2B4A0",
"(.	c #E8E1E9",
"_.	c #F5F2FC",
":.	c #F8F2FD",
"<.	c #F6EFF8",
"[.	c #EA947A",
"}.	c #FC7502",
"|.	c #F77300",
"1.	c #F97400",
"2.	c #EAA89A",
"3.	c #F8F1FB",
"4.	c #EDDEE5",
"5.	c #F47931",
"6.	c #79370C",
"7.	c #904720",
"8.	c #F97607",
"9.	c #FC7602",
"0.	c #BCDFF5",
"a.	c #B2D3E7",
"b.	c #6B7F8A",
"c.	c #654126",
"d.	c #D07C05",
"e.	c #F79401",
"f.	c #FA9601",
"g.	c #FA9607",
"h.	c #EAA586",
"i.	c #EFDFE6",
"j.	c #EE8E6D",
"k.	c #FB7509",
"l.	c #F27001",
"m.	c #B55306",
"n.	c #8F4308",
"o.	c #9B4F06",
"p.	c #ED7001",
"q.	c #FB750C",
"r.	c #EAC2BF",
"s.	c #E9BEBA",
"t.	c #FB760C",
"u.	c #F47202",
"v.	c #F77609",
"w.	c #FC7A0D",
"x.	c #FC7603",
"y.	c #BCDEF4",
"z.	c #A4C1D3",
"A.	c #444D54",
"B.	c #7D490B",
"C.	c #E98B02",
"D.	c #FB9602",
"E.	c #FC8C0E",
"F.	c #F87B2A",
"G.	c #EAD2D6",
"H.	c #F1E7F0",
"I.	c #E9AA9E",
"J.	c #F47627",
"K.	c #904108",
"L.	c #512E0A",
"M.	c #C97803",
"N.	c #F49200",
"O.	c #F38B01",
"P.	c #FB7900",
"Q.	c #FB7610",
"R.	c #EBC3C2",
"S.	c #F8F2FC",
"T.	c #EBB0A6",
"U.	c #FC7807",
"V.	c #FC7B0F",
"W.	c #B2D2E6",
"X.	c #3B444B",
"Y.	c #995A08",
"Z.	c #F39101",
"`.	c #FC8C0C",
" +	c #EE8D6B",
".+	c #F2E9F2",
"++	c #B39E9F",
"@+	c #653A0B",
"#+	c #DB8302",
"$+	c #F59200",
"%+	c #FB8F00",
"&+	c #FC7900",
"*+	c #EAA393",
"=+	c #F7F1FB",
"-+	c #EAC3C1",
";+	c #FB7916",
">+	c #FC790B",
",+	c #94AFC0",
"'+	c #492C13",
")+	c #ED8D01",
"!+	c #FC8907",
"~+	c #FC7908",
"{+	c #FB760E",
"]+	c #E8B0A7",
"^+	c #F6F0FA",
"/+	c #7A7477",
"(+	c #CA7804",
"_+	c #F89400",
":+	c #FA9600",
"<+	c #FC7800",
"[+	c #F57A37",
"}+	c #EBD3D6",
"|+	c #EFE3EA",
"1+	c #F38247",
"2+	c #99B5C6",
"3+	c #88521A",
"4+	c #FB9300",
"5+	c #FB8100",
"6+	c #F67A31",
"7+	c #EBD6DB",
"8+	c #F3EDF7",
"9+	c #4E413D",
"0+	c #EA8C01",
"a+	c #FB9200",
"b+	c #FC7A00",
"c+	c #EA9B86",
"d+	c #F6EEF7",
"e+	c #E8B8B3",
"f+	c #FA771E",
"g+	c #FC7607",
"h+	c #FA7A2B",
"i+	c #B6D7EC",
"j+	c #6D584E",
"k+	c #F69300",
"l+	c #FA9200",
"m+	c #F67B00",
"n+	c #EA9880",
"o+	c #F7EFF9",
"p+	c #F4EFF8",
"q+	c #4F4441",
"r+	c #E58802",
"s+	c #FA8200",
"t+	c #F6751B",
"u+	c #E79C8A",
"v+	c #F7F0F9",
"w+	c #E7B2AA",
"x+	c #F9792B",
"y+	c #FA771D",
"z+	c #F09A83",
"A+	c #D0D2DF",
"B+	c #A9B3BF",
"C+	c #F48818",
"D+	c #F37700",
"E+	c #F57200",
"F+	c #F9792A",
"G+	c #EAD7DD",
"H+	c #F9F4FD",
"I+	c #F6F1FA",
"J+	c #888185",
"K+	c #D78006",
"L+	c #FB7B00",
"M+	c #F67200",
"N+	c #F27000",
"O+	c #F97511",
"P+	c #E9BDBA",
"Q+	c #F8F2FB",
"R+	c #E9D5DA",
"S+	c #D3C4CB",
"T+	c #C5E0F4",
"U+	c #D0E5F7",
"V+	c #E89782",
"W+	c #F27106",
"X+	c #FB750E",
"Y+	c #EAC4C2",
"Z+	c #E7E1EA",
"`+	c #906A56",
" @	c #FC8100",
".@	c #F97300",
"+@	c #F57A38",
"@@	c #EAB1A8",
"#@	c #E6D1D6",
"$@	c #D4E6F8",
"%@	c #CFE8FB",
"&@	c #DDEAF9",
"*@	c #C8D2DF",
"=@	c #B6B8C1",
"-@	c #C0B4BC",
";@	c #CAC6D2",
">@	c #C8DDEE",
",@	c #DAEAFA",
"'@	c #EAEEFB",
")@	c #F5EFF9",
"!@	c #E49986",
"~@	c #FB7604",
"{@	c #EBB8B0",
"]@	c #F8F3FC",
"^@	c #D98C77",
"/@	c #B95A05",
"(@	c #B06606",
"_@	c #E78A02",
":@	c #F87C00",
"<@	c #F47100",
"[@	c #FB7A2C",
"}@	c #E7ADA5",
"|@	c #F3F0F9",
"1@	c #E9E5EF",
"2@	c #B1A4A8",
"3@	c #CB6735",
"4@	c #F67414",
"5@	c #FA7406",
"6@	c #FA7720",
"7@	c #EF8153",
"8@	c #ECD8DD",
"9@	c #F5F0F9",
"0@	c #E5B8B4",
"a@	c #FC7808",
"b@	c #EB9980",
"c@	c #EDE4EC",
"d@	c #F67A36",
"e@	c #E66A02",
"f@	c #B75606",
"g@	c #E27502",
"h@	c #FB7D00",
"i@	c #FB7611",
"j@	c #F4885E",
"k@	c #D8C9D1",
"l@	c #B9B4BB",
"m@	c #694D48",
"n@	c #D96510",
"o@	c #FB7502",
"p@	c #FC7601",
"q@	c #EB9780",
"r@	c #F6EEF8",
"s@	c #E9D3D8",
"t@	c #FB7824",
"u@	c #F47A38",
"v@	c #F0E5ED",
"w@	c #EEE6EE",
"x@	c #F47B3B",
"y@	c #FB7503",
"z@	c #FB7600",
"A@	c #FB7800",
"B@	c #FA7900",
"C@	c #FC7B00",
"D@	c #FC7F00",
"E@	c #F98942",
"F@	c #E0BCBD",
"G@	c #C9DDEF",
"H@	c #F9F1FA",
"I@	c #565357",
"J@	c #984507",
"K@	c #F97D2D",
"L@	c #EAD8DD",
"M@	c #ECE2EA",
"N@	c #F87A31",
"O@	c #F67300",
"P@	c #FB7617",
"Q@	c #E9C8C8",
"R@	c #E6B7B2",
"S@	c #EAA293",
"T@	c #B5725B",
"U@	c #EC8C07",
"V@	c #FB9706",
"W@	c #EFAD82",
"X@	c #C4E4F9",
"Y@	c #767378",
"Z@	c #A64C07",
"`@	c #FC7B0E",
" #	c #FB790E",
".#	c #EAB5AD",
"+#	c #EE7E4A",
"@#	c #FB771C",
"##	c #FB7A2B",
"$#	c #F87400",
"%#	c #F17100",
"&#	c #EAAB9F",
"*#	c #F4ECF5",
"=#	c #E3EBF8",
"-#	c #D3E9FA",
";#	c #C6E5FA",
">#	c #ACC8DA",
",#	c #905F33",
"'#	c #F89910",
")#	c #FB9703",
"!#	c #FB9608",
"~#	c #E3C1B3",
"{#	c #A9A4AB",
"]#	c #622D0F",
"^#	c #E86B02",
"/#	c #FC7809",
"(#	c #EB9378",
"_#	c #F8F0FA",
":#	c #E1BDBC",
"<#	c #DAC4CB",
"[#	c #D9B7AE",
"}#	c #FA9525",
"|#	c #FB9100",
"1#	c #F98D00",
"2#	c #F28700",
"3#	c #F88A00",
"4#	c #FB8A00",
"5#	c #FC8900",
"6#	c #FB8B0F",
"7#	c #E9AF93",
"8#	c #CAE1F2",
"9#	c #89A2B1",
"0#	c #9A5E17",
"a#	c #F99503",
"b#	c #F79400",
"c#	c #F59B43",
"d#	c #F9F2FB",
"e#	c #D3CED6",
"f#	c #342929",
"g#	c #CC5E04",
"h#	c #FC790A",
"i#	c #EB7D4B",
"j#	c #F3EEF8",
"k#	c #D7E9FA",
"l#	c #C5E3F7",
"m#	c #A67B63",
"n#	c #F39100",
"o#	c #FA971E",
"p#	c #E8B89F",
"q#	c #C7E1F3",
"r#	c #91A9B8",
"s#	c #482D18",
"t#	c #D27D05",
"u#	c #F69303",
"v#	c #EA902C",
"w#	c #75523C",
"x#	c #A1AEB9",
"y#	c #979398",
"z#	c #42251C",
"A#	c #CB5E04",
"B#	c #FC7604",
"C#	c #FC781B",
"D#	c #E6ACA2",
"E#	c #CFE7F9",
"F#	c #D0E7F8",
"G#	c #A29596",
"H#	c #DC8305",
"I#	c #F59300",
"J#	c #EB9029",
"K#	c #D1BAB4",
"L#	c #C4E4F8",
"M#	c #C3E7FC",
"N#	c #BADBF0",
"O#	c #7B919E",
"P#	c #48494C",
"Q#	c #828990",
"R#	c #C1D3E2",
"S#	c #BADCF1",
"T#	c #F9F2FC",
"U#	c #959297",
"V#	c #5A290F",
"W#	c #DF6703",
"X#	c #F97401",
"Y#	c #F1721C",
"Z#	c #E5B4AE",
"`#	c #CEE4F5",
" $	c #C8E7FB",
".$	c #DBDBE5",
"+$	c #66554E",
"@$	c #9B612E",
"#$	c #AA661B",
"$$	c #A66623",
"%$	c #B07445",
"&$	c #AD8875",
"*$	c #A9B9C6",
"=$	c #C1E4F9",
"-$	c #DED9E2",
";$	c #5D5A5E",
">$	c #42312F",
",$	c #9E776F",
"'$	c #9D6453",
")$	c #A6A0A6",
"!$	c #C7E3F7",
"~$	c #CBE7FB",
"{$	c #D1DEED",
"]$	c #D3D6E1",
"^$	c #B8BCC6",
"/$	c #B0C3D2",
"($	c #C0DBEE",
"_$	c #C3E3F8",
":$	c #F0E9F1",
"<$	c #ECE5EE",
"[$	c #BFC5D0",
"}$	c #E7E5EF",
"|$	c #D8E4F3",
"1$	c #C4E5FA",
"2$	c #BADCF2",
"3$	c #C9E7FB",
"4$	c #BFE3F9",
"5$	c #BDDFF5",
"                                                                                                    ",
"                                                                                                    ",
"                                                . . +                                               ",
"                                    . . . . . . . @ @ . . . . .                                     ",
"                                # . . . . . . . $ % . . . . . . . .                                 ",
"                            . . & * . . . . . = . . . . . . . . . . . =                             ",
"                        . . . . . & * . . & - = . . . . . . . . . . . ; . .                         ",
"                      . . . . . . . & = & > , . . . . . . . . . . @ $ . . . .                       ",
"                    $ . . . . . . . . = ' ) . . . . . . . . . . ! % . . . . . .                     ",
"                  $ . . . . . . . . . ~ { = . . . . . . . . . @ @ . . . . . . . .                   ",
"                . . . . . . . . . . ] ^ ; & # . . . . . . . @ $ . . . . . . . . . .                 ",
"              . . . . . . . . . . = = = . . & # . . . . . / ( _ : & . . . . . . . = #               ",
"            . . . . . . . . . . $ & . . . . . & # . . < [ } | 1 2 3 . . . . . $ . . . .             ",
"            . . . . . . . . . @ @ . . . . . . . & = 4 5 6 7 8 9 0 a b c d d e @ $ . . .             ",
"          . . . . . . . . . @ @ . . . . . . . . . f g h i 9 9 j k l m n o p q r s t $ . .           ",
"          . . . . . . . . $ @ . . . . . . . . . = u v w k x y z A B C C D E F G H I J K L           ",
"        # = . . . . . . $ @ . . . . . . . . . . M N O P Q B C C C C C C R S T U V V W X Y Z         ",
"        . ` = . . . . = & . . . . # 4 4 d %  ...+.@.#.C $.%.C C C C C &.*.C =.-.V ;.>.,.'.%.C ).    ",
"      . . . = = . . !.= . . . / ~.{.].^./.(._.:.V <.[.}.C $.%.$.%.|.1.C C C 2.3.V 4.5.6.7.8.9.C }.  ",
"      . . . . = = 0.> . . . a.b.c.d.e.f.g.h.;.V V V i.j.k.C l.m.n.o.p.C C q.r.V V s.t.u.v.w.x.C C }.",
"      . . . . . y.^ ; . & z.A.B.C.9 9 D.E.F.G.V V V V H.I.J.K.L.M.N.O.P.C Q.R.V S.T.C U.V.x.C C C   ",
"      . . . = ^ > * . . W.X.Y.Z.9 9 D.`.R 9. +.+V V V V ;.++@+#+$+8 9 %+&+C *+=+V -+;+>+U.*.C C }.  ",
"      . . . f ^ . . = & ,+'+)+9 9 j !+~+C C {+]+3.V V V ^+/+(+_+9 :+w 9 x <+[+}+V |+1+9.C 9.x.C     ",
"      . . ; = & . . . = 2+3+_+9 4+5+B *.C C C 6+7+V V V 8+9+0+9 9 9 :+w a+b+*.c+d+;.e+f+C C g+h+    ",
"    . . $ . . . . . . . i+j+k+l+m+C C C C C C *.n+o+V V p+q+r+9 9 9 9 8 s+C C t+u+|+v+w+x+y+z+A+    ",
"    $ @ @ . . . . . . . = B+C+D+E+C C C C C C C F+G+V H+I+J+K+9 9 9 9 j L+$.M+N+O+P+Q+;.R+S+T+.     ",
"      @ . . . . . . . $ U+V+W+M+C C C C C C C C X+Y+H+V V Z+`+C.8 9 9 9  @.@N+&.C +@@@#@$@$ .       ",
"      %@&@*@=@-@;@>@,@'@)@!@E+%.$.C C C C C C C ~@{@]@V V ;.^@/@(@_@w k :@<@|.$.C [@}@>@. . .       ",
"    |@1@2@3@4@5@6@7@8@V 9@0@k.C %.$.C C C C C C a@b@;.V V c@d@&.e@f@g@h@M+%.C i@j@k@d . . . .       ",
"  3.l@m@n@o@p@C C *.q@r@S.s@t@C C %.$.C C C C &.C u@v@V V w@x@C y@z@A@B@C@D@E@F@G@# . . . . =       ",
"H@)@I@J@%.C 9.*.C *.K@L@V M@N@C C C %.$.C 1.O@C C P@Q@V V =+R@S@T@U@V@j j j W@X@. = # . . ] -       ",
"  ^+Y@Z@&.C C *.x.`@ #.#S.-.+#@###D B z@$#%#$#C C C &#*#=#-#;#>#,#'#)#9 9 !#~#; . . = = > { #       ",
"  Q+{#]#^#C C *.w./#C (#_#=+:#<#[#}#|#1#2#3#4#5#5#6#7#8#$ . & 9#0#a#9 9 b#c#b . . . . , { .         ",
"  d#e#f#g#&.9.R h#x.*.i#j#k#c l#m#w w n#$+:+:+9 o#p#q#. . . $ r#s#t#u#v#w#x#& . . . ^ ^ f =         ",
"    8+y#z#A#B#a@C C C#D#E#. . F#G#H#I#k+8 8 b#J#K#L#. . . . M#N#O#P#Q#R#S## . . . . ^ . .           ",
"    T#8+U#V#W#X#%.Y#Z#`#. . .  $.$+$@$#$$$%$&$*$=$. . . . = . . # / * . . . . . . = . . .           ",
"      Q+-$;$>$,$'$)$!$. . . . . ~${$]$^$/$($_$& ` & . / ] . . . . . . . . . . @ $ . . .             ",
"        :$<$[$}$|$1$. . . . $ @ $ . % % . . . . . & , 2$* . . . . . . . . . @ @ . . . .             ",
"              3$$ . . . . . @ $ . . . . . . . . . / { * . . . . . . . . . @ @ . . . .               ",
"                . . . . $ @ $ . . . . . . . . . 4$> / = & . . . . . . . M#@ $ . . .                 ",
"                  . . . . $ . . . . . . . . . . / f . . = & . . . . . . $ . . . .                   ",
"                    . = . . . . . . . . . . . = . . . . . = = . . . . = . . . .                     ",
"                      . . . . . . . . . . $ @ . . . . . . . ` = . 0.] . . . .                       ",
"                        . . . . . . . . % ! . . . . . . . . . = > 5$. . . .                         ",
"                            . . . . . $ ! $ . . . . . . . . . ^ ' = . .                             ",
"                                . . $ % $ . . . . . . . . . ] ~ # =                                 ",
"                                    $ $ . . . . . . . . . = ] #                                     ",
"                                                $ .                                                 ",
"                                                                                                    ",
"                                                                                                    "};
