/* XPM */
static char * wall_xpm[] = {
"60 60 309 2",
"  	c None",
". 	c #000000",
"+ 	c #173F3F",
"@ 	c #50B5B4",
"# 	c #0F2D2D",
"$ 	c #286261",
"% 	c #357D7B",
"& 	c #409492",
"* 	c #56C3C1",
"= 	c #225554",
"- 	c #215352",
"; 	c #3B8B89",
"> 	c #061A1A",
", 	c #194342",
"' 	c #3D8D8C",
") 	c #103030",
"! 	c #388482",
"~ 	c #2E6F6E",
"{ 	c #071C1C",
"] 	c #2A6665",
"^ 	c #020A0A",
"/ 	c #3A5519",
"( 	c #709F35",
"_ 	c #5F872C",
": 	c #030501",
"< 	c #73A237",
"[ 	c #85BB40",
"} 	c #4B6B21",
"| 	c #000201",
"1 	c #699531",
"2 	c #76A738",
"3 	c #030701",
"4 	c #1D6830",
"5 	c #2C9145",
"6 	c #237838",
"7 	c #010C03",
"8 	c #3C581A",
"9 	c #517425",
"0 	c #1D672F",
"a 	c #2B8F44",
"b 	c #2D9547",
"c 	c #247C3A",
"d 	c #041C08",
"e 	c #091102",
"f 	c #83B93F",
"g 	c #719F35",
"h 	c #227536",
"i 	c #28853F",
"j 	c #041D09",
"k 	c #83B83F",
"l 	c #77A839",
"m 	c #28863F",
"n 	c #010902",
"o 	c #257F3C",
"p 	c #1E6B31",
"q 	c #101B04",
"r 	c #84BA3F",
"s 	c #6E9B34",
"t 	c #0B3616",
"u 	c #2D9446",
"v 	c #298941",
"w 	c #46651F",
"x 	c #45631E",
"y 	c #298A41",
"z 	c #2C9245",
"A 	c #73A337",
"B 	c #6F9D35",
"C 	c #2C9246",
"D 	c #2E706E",
"E 	c #1E6A31",
"F 	c #288840",
"G 	c #4B6C22",
"H 	c #425F1D",
"I 	c #081F1F",
"J 	c #2F7170",
"K 	c #1B632D",
"L 	c #237939",
"M 	c #84B93F",
"N 	c #0C1503",
"O 	c #347B7A",
"P 	c #207134",
"Q 	c #227637",
"R 	c #227737",
"S 	c #113130",
"T 	c #398685",
"U 	c #103130",
"V 	c #26803C",
"W 	c #27843E",
"X 	c #27843F",
"Y 	c #26823D",
"Z 	c #2D9447",
"` 	c #093113",
" .	c #4C6C22",
"..	c #0A3114",
"+.	c #1E6C32",
"@.	c #227537",
"#.	c #082D11",
"$.	c #1A602C",
"%.	c #10431C",
"&.	c #2A8D43",
"*.	c #1F6F33",
"=.	c #000100",
"-.	c #1F2F0A",
";.	c #43601D",
">.	c #111C04",
",.	c #082F12",
"'.	c #111D04",
").	c #43611D",
"!.	c #1F300A",
"~.	c #1C2B09",
"{.	c #7DB03C",
"].	c #74A337",
"^.	c #010300",
"/.	c #10441D",
"(.	c #000301",
"_.	c #10431D",
":.	c #74A437",
"<.	c #7DB13C",
"[.	c #1D2C09",
"}.	c #3D581A",
"|.	c #577C28",
"1.	c #082D12",
"2.	c #092E12",
"3.	c #22330C",
"4.	c #84BA40",
"5.	c #4E7023",
"6.	c #06240D",
"7.	c #6B9833",
"8.	c #77A738",
"9.	c #040701",
"0.	c #21320C",
"a.	c #6E9C34",
"b.	c #6C9933",
"c.	c #3F5B1B",
"d.	c #020501",
"e.	c #144E23",
"f.	c #2A8C43",
"g.	c #85BA40",
"h.	c #25380D",
"i.	c #7AAD3A",
"j.	c #7BAD3B",
"k.	c #165526",
"l.	c #6C9833",
"m.	c #152106",
"n.	c #27853F",
"o.	c #7AAC3A",
"p.	c #25370D",
"q.	c #5E852B",
"r.	c #3C571A",
"s.	c #1E6931",
"t.	c #1E6930",
"u.	c #496921",
"v.	c #7EB23C",
"w.	c #093013",
"x.	c #72A136",
"y.	c #060C02",
"z.	c #7EB13C",
"A.	c #2F4512",
"B.	c #121E05",
"C.	c #1D6930",
"D.	c #1F6D32",
"E.	c #567B27",
"F.	c #385117",
"G.	c #121D05",
"H.	c #2E4412",
"I.	c #44621E",
"J.	c #2C9346",
"K.	c #0F421C",
"L.	c #0D1703",
"M.	c #7AAB3A",
"N.	c #679230",
"O.	c #10421C",
"P.	c #5E862C",
"Q.	c #1B612C",
"R.	c #134C21",
"S.	c #4F7224",
"T.	c #124A20",
"U.	c #5D842B",
"V.	c #80B53E",
"W.	c #273A0E",
"X.	c #165425",
"Y.	c #155224",
"Z.	c #1B2908",
"`.	c #699532",
" +	c #496820",
".+	c #75A538",
"++	c #192707",
"@+	c #175727",
"#+	c #2A8B42",
"$+	c #010802",
"%+	c #175827",
"&+	c #175627",
"*+	c #486820",
"=+	c #1E2E0A",
"-+	c #82B63E",
";+	c #79AA3A",
">+	c #405C1C",
",+	c #010100",
"'+	c #26813D",
")+	c #082C11",
"!+	c #040901",
"~+	c #73A236",
"{+	c #185A28",
"]+	c #547826",
"^+	c #79AB3A",
"/+	c #597F29",
"(+	c #185A29",
"_+	c #000200",
":+	c #334B15",
"<+	c #5B812A",
"[+	c #1F6E33",
"}+	c #217436",
"|+	c #155225",
"1+	c #517325",
"2+	c #7DAF3C",
"3+	c #709E35",
"4+	c #091002",
"5+	c #155023",
"6+	c #638C2E",
"7+	c #7CAF3B",
"8+	c #142005",
"9+	c #031706",
"0+	c #155325",
"a+	c #2B9045",
"b+	c #0D3A18",
"c+	c #42601D",
"d+	c #314814",
"e+	c #547726",
"f+	c #0D3B18",
"g+	c #2B9145",
"h+	c #06250D",
"i+	c #2B8E43",
"j+	c #145023",
"k+	c #60892D",
"l+	c #1C652E",
"m+	c #20310B",
"n+	c #021104",
"o+	c #1B622C",
"p+	c #134B21",
"q+	c #11451E",
"r+	c #020F04",
"s+	c #82B73F",
"t+	c #040801",
"u+	c #76A638",
"v+	c #0D3C19",
"w+	c #25380E",
"x+	c #26813C",
"y+	c #175928",
"z+	c #0B3415",
"A+	c #082E12",
"B+	c #165426",
"C+	c #0A3314",
"D+	c #1A5F2B",
"E+	c #010501",
"F+	c #298B42",
"G+	c #021505",
"H+	c #257E3B",
"I+	c #2A8C42",
"J+	c #031806",
"K+	c #628A2D",
"L+	c #507224",
"M+	c #010602",
"N+	c #1C2C09",
"O+	c #7FB23D",
"P+	c #11461E",
"Q+	c #072A10",
"R+	c #618A2D",
"S+	c #247B3A",
"T+	c #207034",
"U+	c #4A6A21",
"V+	c #557A27",
"W+	c #010200",
"X+	c #587D28",
"Y+	c #293D10",
"Z+	c #557927",
"`+	c #010D03",
" @	c #06270E",
".@	c #080F02",
"+@	c #78A939",
"@@	c #597E29",
"#@	c #081002",
"$@	c #26390E",
"%@	c #648E2F",
"&@	c #77A739",
"*@	c #217235",
"=@	c #2A3E10",
"-@	c #293E10",
";@	c #11471F",
">@	c #1A5E2B",
",@	c #060D02",
"'@	c #47661F",
")@	c #304714",
"!@	c #020301",
"~@	c #11471E",
"{@	c #072B10",
"]@	c #3A5419",
"^@	c #070F02",
"/@	c #628B2E",
"(@	c #072C10",
"_@	c #124920",
":@	c #247A39",
"<@	c #288740",
"[@	c #257D3B",
"}@	c #5A812A",
"|@	c #81B53E",
"1@	c #24360D",
"2@	c #060B02",
"3@	c #395318",
"4@	c #415E1C",
"                                                                                                                        ",
"                                                                                                                        ",
"                          . . . .                                                                                       ",
"                        . . + + . .                                                                         . . .       ",
"                        . . @ @ . .                         . .                           . .             . # $ . .     ",
"                        . . % % . .                         . .                           . .             . & * = .     ",
"                          . . . .                                                                         . - ; > .     ",
"                                                                        . . . .                           . . . .       ",
"                                                                        . , ' ) .                                       ",
"          .                                 .             . .           . ! * ~ .                                       ",
"          . .                               .         . . . . .         . { ] ^ .                                       ",
"                                                      . / ( _ : .         . . .                                         ",
"                          . . .                     . . < [ [ } .                       . . .             .             ",
"                        . . | . .                   . . 1 [ [ 2 3 .                   . . | . .         . .             ",
"                      . . 4 5 6 7 .                   . 8 [ [ [ 9 .                 . 7 6 5 0 . .                       ",
"                      . . a b b c d .                 . e f [ [ g . .             . d c b b a . .                       ",
"                      . . h b b b i j .               . . k [ [ l . .           . j m b b b h . .                       ",
"                        . n o b b b p . .             . q r [ [ s . .         . . p b b b o n .                         ",
"          . . .           . t u b b v . .             . w [ [ [ x .           . . y b b u t .                           ",
"        . ^ ] { .         . . o b b z . .           . . A [ [ B . .           . . C b b o . .         . . .             ",
"        . D * ! .           . E b b F . .           . G [ [ [ H .             . . F b b E .         . I J I .           ",
"        . ) ' , .           . K b b L . .         . . B [ [ M N .             . . L b b K .         . O * O .           ",
"          . . . .           . P b b Q . .         . . l [ [ k . .             . . R b b P .         . S T U .           ",
"                          . . V b b W . .         . . B [ [ M N .             . . X b b V . .         . . .             ",
"                          . . Y b b Z ` .           .  .[ [ [ H .             . ..Z b b Y . .                           ",
"                            . +.b b b @.. .         . . A [ [ B . .         . . @.b b b p .                             ",
"                            . #.a b b b $.. .         . w [ [ [ x .       . . $.b b b a #..                             ",
"      . . . .               . . %.&.b b b *.=..       . q r [ [ s . .   . =.*.b b b &.%.. .               . . . .       ",
"    . . -.;.>..               . . ,.y b b b K . .     . . k [ [ l . . . . K b b b y ,.. .               . '.).!.. .     ",
"    . ~.{.[ ].^..               . . /.Z b b &.| .     . e f [ [ g . . . (.&.b b Z _.. .               . ^.:.[ <.[..     ",
"    . }.[ [ [ |.. .               . . o b b b 1..     . }.[ [ [ 9 .   . 2.b b b o . .               . . |.[ [ [ }..     ",
"    . 3.4.[ [ M 5.. . .             . $.b b b 6..   . . 7.[ [ 8.9..   . 6.b b b $..             . . . 5.M [ [ 4.0..     ",
"    . . a.[ [ [ [ b.c.d.. .         . e.b b f.. .   . c.g.[ [ G .     . . f.b b e..         . . d.c.b.[ [ [ [ a.. .     ",
"      . h.i.[ [ [ [ [ j.H . .       . k.b b X . . . . l.[ [ 4.m..     . . n.b b k..       . . H j.[ [ [ [ [ o.p..       ",
"      . . ~.q.o.[ [ [ [ k r..       . s.b b v . . . . 8.[ [ k . .     . . y b b t..       . r.k [ [ [ [ j.q.~.. .       ",
"        . . . ^.u.v.[ [ [ :.. .   . . h b b b w.. . . x.[ [ f y..     . ` b b b h . .   . . :.[ [ [ z.u.^.. . .         ",
"              . . A.v.[ [ 4.B..     . C.b b b D.. . . E.[ [ [ F..   . . D.b b b C..     . G.4.[ [ v.H.. .               ",
"                . . I.[ [ [ r..     . t J.b b C K.. . L.M.[ [ N.. . . O.J.b b J.t .     . r.[ [ [ I.. .                 ",
"                  . . ].[ [ P.. .   . . Q.Z b b a R.. . S.[ [ r F.. T.a b b Z Q.. .   . . P.[ [ A . .                   ",
"                    . U.[ [ V.W..     . . X.z b b J.Y.. Z.4.[ [ `.. K b b z X.. .     . W.V.[ [ U..                     ",
"                    .  +[ [ [ .+++. . . . . @+b b b #+$+. k [ [ 2 . %+b b &+. . . . . ++.+[ [ [ *+.                     ",
"        . . .       . =+-+[ [ [ ;+>+,+. . . . '+b b b )+!+k [ [ ~+. {+b '+. . . . ,+>+;+[ [ [ -+=+.       . . .         ",
"      . . . . .     . . ]+[ [ [ [ [ ^+/+L.. . (+b b F _+:+[ [ [ <+. [+b (+. . L./+^+[ [ [ [ [ ]+. .     . . . . .       ",
"    . | }+F |+. .     . . 1+2+[ [ [ [ [ 3+4+. t b b 5+. 6+[ [ 7+8+9+f.b t . e 3+[ [ [ [ [ 2+1+. .     . . 0+F }+| .     ",
"    . %.b b a+b+. .     . . !+c+x.[ [ [ [ /+. ,.b Y . d+k [ [ e+. C.b b ,.. /+[ [ [ [ x.c+!+. .     . . f+g+b b %..     ",
"    . h+a b b i+j+. . . . . . . ,+k+[ [ [ 2 . /.b l+. N.[ [ g.m+n+a+b b /.. 2 [ [ [ k+,+. . . . . . . j+i+b b a h+.     ",
"    . . 0+b b b b Y o+R.p+q+r+. . ,+b.[ [ s+t+#.b %+. u+[ [ k ,+v+b b b #.t+s+[ [ b.,+. . r+q+p+R.o+Y b b b b 0+. .     ",
"      . . o b b b b b b b b &.@+. . w+k [ [ }.. x+y+. ].[ [ k : z+b b V . }.[ [ k w+. . @+&.b b b b b b b b o . .       ",
"        . A+F b b b b b b b b b B+. . ( [ [ l.. C+D+. _ [ [ [ H.E+F+f.C+. b.[ [ ( . . B+b b b b b b b b b F A+.         ",
"        . . G+o+c H+o I+b b b b I+J+. K+[ [ [ L+. M+. N+O+[ [ _ . P+Q+. L+[ [ [ R+. J+I+b b b b I+o H+S+o+G+. .         ",
"            . . . . . _+T.n.b b b T+. U+[ [ [ f V+W+. . X+[ [ -+Y+. W+Z+f [ [ [ U+. T+b b b X T._+. . . . .             ",
"                . . . . . `+Q b b J. @.@l [ [ [ [ +@@@#@$@[ [ [ %@. E.[ [ [ [ &@.@ @J.b b Q `+. . . . .                 ",
"                          . `+n.b b *@. =@l [ [ [ [ [ :+W+k [ [ .+. 5.[ [ [ l -@. *@b b n.`+.                           ",
"                            . ;@b b b >@. ,@'@b.r [ [ )@!@k [ [ :.. 5.r b.'@,@. >@b b b ~@.                             ",
"                            . . 4 b b b *@{@. . ]@{.z.^@Y+[ [ [ /@. 1+]@. . (@*@b b b 4 . .                             ",
"                              . . _@:@<@<@v [@;@. d+5.. }@[ [ |@1@. 2@. ;@[@v <@<@:@_@. .                               ",
"              . . . . . . . . . . . . . . . ` P+=.. . . 3@4@4@:+. . . =.P+` . . . . . . . . . . . . . . .               ",
"              . . . . . . . . . . . . . . . . . . . . . . . . . . . . . . . . . . . . . . . . . . . . . .               ",
"                                                                                                                        ",
"                                                                                                                        "};
