/* XPM */
static char *wall[] = {
"16 16 2 1",
"0 c none",
"1 c #FF0000",
"1111111111111111",
"1000000000000001",
"1001111111111001",
"1001000000001001",
"1001001111001001",
"1001001001001001",
"1001001111001001",
"1001000000001001",
"1001111111111001",
"1000000000000001",
"1111111111111111",
"1111111111111111",
"1111111111111111",
"1111111111111111",
"1111111111111111",
"1111111111111111"
};